<svg width="339" height="170" viewBox="0 0 339 170" fill="none" xmlns="http://www.w3.org/2000/svg">
<path d="M94.5596 61.2963C84.266 69.647 68.8996 68.1426 62.7508 56.4003C56.0245 43.5554 51.6407 29.5424 49.8779 15.0182C47.1462 -7.49047 50.8204 -30.3133 60.4785 -50.8273C70.1365 -71.3414 85.3865 -88.7144 104.476 -100.95C123.565 -113.185 145.719 -119.786 168.392 -119.995C191.065 -120.203 213.337 -114.01 232.648 -102.128C251.959 -90.246 267.526 -73.1565 277.56 -52.8235C287.593 -32.4905 291.687 -9.73909 289.369 12.8161C287.874 27.3701 283.748 41.4614 277.259 54.4279C271.328 66.2813 255.991 68.0679 245.546 59.9079L184.557 12.2629C175.745 5.37873 163.346 5.49274 154.662 12.5378L94.5596 61.2963Z" fill="#282A36"/>
<path d="M112.848 78.6207C105.067 89.351 107.4 104.614 119.458 110.118C136.073 117.703 154.295 121.456 172.761 120.956C191.228 120.456 209.22 115.722 225.4 107.25C237.142 101.101 238.647 85.7343 230.296 75.4408L189.205 24.7898C179.263 12.5348 160.402 13.0454 151.138 25.8205L112.848 78.6207Z" fill="#BBFF1A"/>
</svg>
